<?xml version="1.0" encoding="UTF-8" standalone="no"?>
<!-- Created with Inkscape (http://www.inkscape.org/) -->

<svg
   width="153.28738mm"
   height="57.69957mm"
   viewBox="0 0 153.28738 57.69957"
   version="1.1"
   id="svg1"
   inkscape:version="1.3.2 (091e20e, 2023-11-25)"
   sodipodi:docname="mysterious_drawing.svg"
   xmlns:inkscape="http://www.inkscape.org/namespaces/inkscape"
   xmlns:sodipodi="http://sodipodi.sourceforge.net/DTD/sodipodi-0.dtd"
   xmlns="http://www.w3.org/2000/svg"
   xmlns:svg="http://www.w3.org/2000/svg">
  <sodipodi:namedview
     id="namedview1"
     pagecolor="#ffffff"
     bordercolor="#000000"
     borderopacity="0.25"
     inkscape:showpageshadow="2"
     inkscape:pageopacity="0.0"
     inkscape:pagecheckerboard="0"
     inkscape:deskcolor="#d1d1d1"
     inkscape:document-units="mm"
     inkscape:zoom="1.0449705"
     inkscape:cx="84.212904"
     inkscape:cy="88.519245"
     inkscape:window-width="1440"
     inkscape:window-height="784"
     inkscape:window-x="0"
     inkscape:window-y="23"
     inkscape:window-maximized="1"
     inkscape:current-layer="text1" />
  <defs
     id="defs1">
    <rect
       x="116.7497"
       y="74.64325"
       width="872.75189"
       height="286.13248"
       id="rect1" />
  </defs>
  <g
     inkscape:label="Layer 1"
     inkscape:groupmode="layer"
     id="layer1"
     transform="translate(-25.860933,-16.914016)">
    <g
       id="text1"
       style="font-size:30.2362px;line-height:1;font-family:Hk_font;-inkscape-font-specification:Hk_font;text-align:center;text-orientation:upright;white-space:pre;fill-rule:evenodd;stroke:#000000;stroke-width:0.377953"
       transform="matrix(0.26458333,0,0,0.26458333,-43.043478,-2.7851662)"
       aria-label="nop">
      <path
         d="m 263.63429,104.87878 q -1.24754,0 -2.14075,-0.87845 -0.87844,-0.8932 -0.87844,-2.14074 0,-1.25492 0.87844,-2.140749 0.89321,-0.885826 2.14075,-0.885826 h 15.1181 v 6.045765 z m 6.04576,-12.091529 q -1.24754,0 -2.14074,-0.885826 -0.87845,-0.885826 -0.87845,-2.140747 0,-1.247538 0.87845,-2.133364 0.8932,-0.885827 2.14074,-0.885827 1.25492,0 2.14075,0.885827 0.88583,0.885826 0.88583,2.133364 0,1.254921 -0.88583,2.140747 -0.88583,0.885826 -2.14075,0.885826 z M 260.6151,80.695724 v -6.053146 h 15.1181 q 1.24754,0 2.13336,0.885826 0.88583,0.893208 0.88583,2.140747 0,1.25492 -0.88583,2.140747 -0.88582,0.885826 -2.13336,0.885826 z m 27.20224,24.183056 q -1.24754,0 -2.14074,-0.87845 -0.87845,-0.8932 -0.87845,-2.14074 0,-1.25492 0.87845,-2.140749 0.8932,-0.885826 2.14074,-0.885826 1.25492,0 2.14075,0.885826 0.88583,0.885829 0.88583,2.140749 0,1.24754 -0.88583,2.14074 -0.88583,0.87845 -2.14075,0.87845 z m 0,-12.091529 q -1.24754,0 -2.14074,-0.885826 -0.87845,-0.885826 -0.87845,-2.140747 v -15.1181 h 6.04577 v 15.1181 q 0,1.254921 -0.88583,2.140747 -0.88583,0.885826 -2.14075,0.885826 z m 36.28197,6.045764 3.01919,-6.045764 h -12.09153 l 3.01919,6.045764 z m -9.07234,6.045765 -9.06495,-18.137293 h 30.22881 l -9.07233,18.137293 z m -6.04576,-24.183056 v -6.053146 h 21.16386 q 1.24754,0 2.14075,0.885826 0.87844,0.893208 0.87844,2.140747 0,1.25492 -0.87844,2.140747 -0.89321,0.885826 -2.14075,0.885826 z m 44.59396,12.091527 q -1.25492,0 -2.14075,-0.885826 -0.88582,-0.885826 -0.88582,-2.140747 0,-1.247538 0.88582,-2.133364 0.88583,-0.885827 2.14075,-0.885827 1.24754,0 2.13337,0.885827 0.88582,0.885826 0.88582,2.133364 0,1.254921 -0.88582,2.140747 -0.88583,0.885826 -2.13337,0.885826 z m 9.06496,6.045764 V 80.695724 h -18.1373 v 18.137291 z m -21.16387,6.045765 q -1.24754,0 -2.14074,-0.87845 -0.87845,-0.8932 -0.87845,-2.14074 V 74.642578 h 27.20963 q 1.24754,0 2.14075,0.885826 0.88582,0.893208 0.88582,2.140747 v 24.190439 q 0,1.24754 -0.88582,2.14074 -0.89321,0.87845 -2.14075,0.87845 z m 45.35431,0 v -9.064956 q 0,-1.254921 0.88582,-2.140747 0.88583,-0.885826 2.14075,-0.885826 1.24754,0 2.13336,0.885826 0.88583,0.885826 0.88583,2.140747 v 9.064956 z m -9.07234,0 q -1.24754,0 -2.14075,-0.87845 -0.87844,-0.8932 -0.87844,-2.14074 V 74.642578 h 6.04576 v 27.217012 q 0,1.24754 -0.88582,2.14074 -0.88583,0.87845 -2.14075,0.87845 z m 24.19044,0 q -1.25492,0 -2.14075,-0.87845 -0.88583,-0.8932 -0.88583,-2.14074 V 74.642578 h 6.05315 v 27.217012 q 0,1.24754 -0.88583,2.14074 -0.89321,0.87845 -2.14074,0.87845 z m 12.09152,0 q -1.24754,0 -2.14075,-0.87845 -0.87844,-0.8932 -0.87844,-2.14074 0,-1.25492 0.87844,-2.140749 0.89321,-0.885826 2.14075,-0.885826 h 15.1181 v 6.045765 z m 6.04576,-12.091529 q -1.24754,0 -2.14074,-0.885826 -0.87845,-0.885826 -0.87845,-2.140747 0,-1.247538 0.87845,-2.133364 0.8932,-0.885827 2.14074,-0.885827 1.25492,0 2.14075,0.885827 0.88582,0.885826 0.88582,2.133364 0,1.254921 -0.88582,2.140747 -0.88583,0.885826 -2.14075,0.885826 z M 411.021,80.695724 v -6.053146 h 15.1181 q 1.24754,0 2.13336,0.885826 0.88583,0.893208 0.88583,2.140747 0,1.25492 -0.88583,2.140747 -0.88582,0.885826 -2.13336,0.885826 z m 36.27458,24.183056 v -6.045765 h 21.16386 q 1.24754,0 2.14075,0.885826 0.87844,0.885829 0.87844,2.140749 0,1.24754 -0.87844,2.14074 -0.89321,0.87845 -2.14075,0.87845 z m 3.01919,-24.183056 q -1.24754,0 -2.14075,-0.885826 -0.87844,-0.885827 -0.87844,-2.140747 0,-1.247539 0.87844,-2.140747 0.89321,-0.885826 2.14075,-0.885826 1.25492,0 2.14075,0.885826 0.88582,0.893208 0.88582,2.140747 0,1.25492 -0.88582,2.140747 -0.88583,0.885826 -2.14075,0.885826 z m 0,12.091527 q -1.24754,0 -2.14075,-0.885826 -0.87844,-0.885826 -0.87844,-2.140747 0,-1.247538 0.87844,-2.133364 0.89321,-0.885827 2.14075,-0.885827 h 15.1181 v -6.045763 h -6.04576 v -6.053146 h 9.07233 q 1.24754,0 2.14075,0.885826 0.87844,0.893208 0.87844,2.140747 v 12.091527 q 0,1.254921 -0.87844,2.140747 -0.89321,0.885826 -2.14075,0.885826 z m 30.23621,0 q -1.24754,0 -2.14075,-0.885826 -0.87844,-0.885826 -0.87844,-2.140747 0,-1.247538 0.87844,-2.133364 0.89321,-0.885827 2.14075,-0.885827 1.25492,0 2.14074,0.885827 0.88583,0.885826 0.88583,2.133364 0,1.254921 -0.88583,2.140747 -0.88582,0.885826 -2.14074,0.885826 z m 6.04576,12.091529 q -1.24754,0 -2.14075,-0.87845 -0.87844,-0.8932 -0.87844,-2.14074 0,-1.25492 0.87844,-2.140749 0.89321,-0.885826 2.14075,-0.885826 h 9.07234 v -6.045764 h -6.04577 v -6.045764 h 6.04577 v -6.045763 h -18.13729 v -6.053146 h 18.13729 q 2.50984,0 4.27411,1.779034 1.77165,1.771653 1.77165,4.274112 v 18.137291 q 0,2.509845 -1.77165,4.274115 -1.77165,1.77165 -4.27411,1.77165 z m 36.28934,-6.045765 3.01919,-6.045764 h -12.09153 l 3.01919,6.045764 z m -9.07234,6.045765 -9.06495,-18.137293 h 30.22881 l -9.07233,18.137293 z m -6.04576,-24.183056 v -6.053146 h 21.16386 q 1.24754,0 2.14075,0.885826 0.87844,0.893208 0.87844,2.140747 0,1.25492 -0.87844,2.140747 -0.89321,0.885826 -2.14075,0.885826 z m 32.49506,12.091527 q -1.24754,0 -2.14074,-0.885826 -0.87845,-0.885826 -0.87845,-2.140747 0,-1.247538 0.87845,-2.133364 0.8932,-0.885827 2.14074,-0.885827 1.25492,0 2.14075,0.885827 0.88583,0.885826 0.88583,2.133364 0,1.254921 -0.88583,2.140747 -0.88583,0.885826 -2.14075,0.885826 z m 6.04577,12.091529 q -1.24754,0 -2.14075,-0.87845 -0.87844,-0.8932 -0.87844,-2.14074 0,-1.25492 0.87844,-2.140749 0.89321,-0.885826 2.14075,-0.885826 h 9.07233 v -6.045764 h -6.04576 v -6.045764 h 6.04576 v -6.045763 h -18.13729 v -6.053146 h 18.13729 q 2.50984,0 4.27411,1.779034 1.77166,1.771653 1.77166,4.274112 v 18.137291 q 0,2.509845 -1.77166,4.274115 -1.77165,1.77165 -4.27411,1.77165 z m 30.2362,0 q -1.24754,0 -2.14074,-0.87845 -0.87845,-0.8932 -0.87845,-2.14074 0,-1.25492 0.87845,-2.140749 0.8932,-0.885826 2.14074,-0.885826 h 15.1181 v 6.045765 z m -6.04576,-9.064956 q -1.24754,0 -2.14075,-0.885826 -0.87844,-0.885826 -0.87844,-2.140747 0,-1.247538 0.87844,-2.140747 0.89321,-0.885826 2.14075,-0.885826 1.25492,0 2.14075,0.885826 0.88582,0.893209 0.88582,2.140747 0,1.254921 -0.88582,2.140747 -0.88583,0.885826 -2.14075,0.885826 z m 18.14467,-6.053146 q -1.25492,0 -2.14074,-0.878444 -0.88583,-0.893208 -0.88583,-2.140747 0,-1.25492 0.88583,-2.140746 0.88582,-0.885826 2.14074,-0.885826 1.24754,0 2.14075,0.885826 0.87844,0.885826 0.87844,2.140746 0,1.247539 -0.87844,2.140747 -0.89321,0.878444 -2.14075,0.878444 z m -21.16386,-9.064954 v -6.053146 h 15.1181 q 1.24754,0 2.13336,0.885826 0.88583,0.893208 0.88583,2.140747 0,1.25492 -0.88583,2.140747 -0.88582,0.885826 -2.13336,0.885826 z m 42.32773,24.183056 v -6.045765 h 21.16386 q 1.24754,0 2.14075,0.885826 0.87844,0.885829 0.87844,2.140749 0,1.24754 -0.87844,2.14074 -0.89321,0.87845 -2.14075,0.87845 z m 3.01919,-24.183056 q -1.24754,0 -2.14075,-0.885826 -0.87844,-0.885827 -0.87844,-2.140747 0,-1.247539 0.87844,-2.140747 0.89321,-0.885826 2.14075,-0.885826 1.25492,0 2.14074,0.885826 0.88583,0.893208 0.88583,2.140747 0,1.25492 -0.88583,2.140747 -0.88582,0.885826 -2.14074,0.885826 z m 0,12.091527 q -1.24754,0 -2.14075,-0.885826 -0.87844,-0.885826 -0.87844,-2.140747 0,-1.247538 0.87844,-2.133364 0.89321,-0.885827 2.14075,-0.885827 h 15.1181 v -6.045763 h -6.04577 v -6.053146 h 9.07234 q 1.24754,0 2.14075,0.885826 0.87844,0.893208 0.87844,2.140747 v 12.091527 q 0,1.254921 -0.87844,2.140747 -0.89321,0.885826 -2.14075,0.885826 z m 30.23617,0 q -1.24754,0 -2.14074,-0.885826 -0.87845,-0.885826 -0.87845,-2.140747 0,-1.247538 0.87845,-2.133364 0.8932,-0.885827 2.14074,-0.885827 1.25492,0 2.14075,0.885827 0.88583,0.885826 0.88583,2.133364 0,1.254921 -0.88583,2.140747 -0.88583,0.885826 -2.14075,0.885826 z m 6.04577,12.091529 q -1.24754,0 -2.14075,-0.87845 -0.87844,-0.8932 -0.87844,-2.14074 0,-1.25492 0.87844,-2.140749 0.89321,-0.885826 2.14075,-0.885826 h 9.07233 v -6.045764 h -6.04576 v -6.045764 h 6.04576 v -6.045763 h -18.13729 v -6.053146 h 18.13729 q 2.50984,0 4.27411,1.779034 1.77166,1.771653 1.77166,4.274112 v 18.137291 q 0,2.509845 -1.77166,4.274115 -1.77165,1.77165 -4.27411,1.77165 z m 24.19044,0 q -1.24754,0 -2.14075,-0.87845 -0.87844,-0.8932 -0.87844,-2.14074 V 86.741487 h 6.04576 v 15.118103 q 0,1.24754 -0.88582,2.14074 -0.88583,0.87845 -2.14075,0.87845 z m 12.09891,0 q -1.25492,0 -2.14075,-0.87845 -0.88582,-0.8932 -0.88582,-2.14074 V 86.741487 h 6.04576 v 15.118103 q 0,1.24754 -0.88583,2.14074 -0.88582,0.87845 -2.13336,0.87845 z m 12.09153,0 q -1.25492,0 -2.14075,-0.87845 -0.88583,-0.8932 -0.88583,-2.14074 V 80.695724 h -24.18305 v -6.053146 h 27.20963 q 1.24753,0 2.14074,0.885826 0.88583,0.893208 0.88583,2.140747 v 24.190439 q 0,1.24754 -0.88583,2.14074 -0.89321,0.87845 -2.14074,0.87845 z m 30.23621,-6.045765 q -1.25492,0 -2.14074,-0.878445 -0.88583,-0.893208 -0.88583,-2.140746 0,-1.254921 0.88583,-2.140747 0.88582,-0.885826 2.14074,-0.885826 1.24754,0 2.14075,0.885826 0.87845,0.885826 0.87845,2.140747 0,1.247538 -0.87845,2.140746 -0.89321,0.878445 -2.14075,0.878445 z m -21.16386,6.045765 V 77.676533 q 0,-1.254921 0.87844,-2.140747 0.89321,-0.893208 2.14075,-0.893208 h 18.14467 q 1.24754,0 2.14075,0.885826 0.87845,0.893208 0.87845,2.140747 v 6.045764 q 0,1.25492 -0.87845,2.140746 -0.89321,0.885826 -2.14075,0.885826 -1.25492,0 -2.14074,-0.885826 -0.88583,-0.885826 -0.88583,-2.140746 v -3.019191 h -12.09153 v 24.183056 z m 33.25537,0 q -1.24754,0 -2.14075,-0.87845 -0.87844,-0.8932 -0.87844,-2.14074 V 86.741487 h 6.04576 v 15.118103 q 0,1.24754 -0.88583,2.14074 -0.88582,0.87845 -2.14074,0.87845 z m 12.09891,0 q -1.25492,0 -2.14075,-0.87845 -0.88583,-0.8932 -0.88583,-2.14074 V 80.695724 h -12.09152 v -6.053146 h 15.1181 q 1.24753,0 2.13336,0.885826 0.88583,0.893208 0.88583,2.140747 v 24.190439 q 0,1.24754 -0.88583,2.14074 -0.88583,0.87845 -2.13336,0.87845 z m 9.06497,0 v -6.045765 h 21.16386 q 1.24754,0 2.14075,0.885826 0.87845,0.885829 0.87845,2.140749 0,1.24754 -0.87845,2.14074 -0.89321,0.87845 -2.14075,0.87845 z m 3.01919,-24.183056 q -1.24754,0 -2.14074,-0.885826 -0.87845,-0.885827 -0.87845,-2.140747 0,-1.247539 0.87845,-2.140747 0.8932,-0.885826 2.14074,-0.885826 1.25492,0 2.14075,0.885826 0.88582,0.893208 0.88582,2.140747 0,1.25492 -0.88582,2.140747 -0.88583,0.885826 -2.14075,0.885826 z m 0,12.091527 q -1.24754,0 -2.14074,-0.885826 -0.87845,-0.885826 -0.87845,-2.140747 0,-1.247538 0.87845,-2.133364 0.8932,-0.885827 2.14074,-0.885827 h 15.1181 v -6.045763 h -6.04576 v -6.053146 h 9.07233 q 1.24754,0 2.14075,0.885826 0.87845,0.893208 0.87845,2.140747 v 12.091527 q 0,1.254921 -0.87845,2.140747 -0.89321,0.885826 -2.14075,0.885826 z m 30.23618,0 q -1.24754,0 -2.14075,-0.885826 -0.87844,-0.885826 -0.87844,-2.140747 0,-1.247538 0.87844,-2.133364 0.89321,-0.885827 2.14075,-0.885827 1.25492,0 2.14074,0.885827 0.88583,0.885826 0.88583,2.133364 0,1.254921 -0.88583,2.140747 -0.88582,0.885826 -2.14074,0.885826 z m 6.04576,12.091529 q -1.24754,0 -2.14075,-0.87845 -0.87844,-0.8932 -0.87844,-2.14074 0,-1.25492 0.87844,-2.140749 0.89321,-0.885826 2.14075,-0.885826 h 9.07234 v -6.045764 h -6.04577 v -6.045764 h 6.04577 v -6.045763 h -18.13729 v -6.053146 h 18.13729 q 2.50984,0 4.27411,1.779034 1.77165,1.771653 1.77165,4.274112 v 18.137291 q 0,2.509845 -1.77165,4.274115 -1.77165,1.77165 -4.27411,1.77165 z m 36.28935,0 q -1.25492,0 -2.14074,-0.87845 -0.88583,-0.8932 -0.88583,-2.14074 0,-1.25492 0.88583,-2.140749 0.88582,-0.885826 2.14074,-0.885826 1.24754,0 2.13337,0.885826 0.88582,0.885829 0.88582,2.140749 0,1.24754 -0.88582,2.14074 -0.88583,0.87845 -2.13337,0.87845 z m 0,-12.091529 q -1.25492,0 -2.14074,-0.885826 -0.88583,-0.885826 -0.88583,-2.140747 0,-1.247538 0.88583,-2.133364 0.88582,-0.885827 2.14074,-0.885827 1.24754,0 2.13337,0.885827 0.88582,0.885826 0.88582,2.133364 0,1.254921 -0.88582,2.140747 -0.88583,0.885826 -2.13337,0.885826 z m -15.1181,12.091529 V 80.695724 q 0,-2.509841 1.77166,-4.274112 1.77165,-1.779034 4.27411,-1.779034 h 9.07233 q 1.24754,0 2.13337,0.885826 0.88582,0.893208 0.88582,2.140747 0,1.25492 -0.88582,2.140747 -0.88583,0.885826 -2.13337,0.885826 h -9.07233 v 24.183056 z"
         id="path1" />
      <path
         d="m 281.40249,153.25965 q -1.24754,0 -2.14075,-0.88583 -0.87844,-0.88582 -0.87844,-2.14074 0,-1.24754 0.87844,-2.13337 0.89321,-0.88583 2.14075,-0.88583 1.25492,0 2.14074,0.88583 0.88583,0.88583 0.88583,2.13337 0,1.25492 -0.88583,2.14074 -0.88582,0.88583 -2.14074,0.88583 z m 6.04576,12.09153 q -1.24754,0 -2.14075,-0.87845 -0.87844,-0.89321 -0.87844,-2.14075 0,-1.25492 0.87844,-2.14074 0.89321,-0.88583 2.14075,-0.88583 h 3.02657 v -18.13729 h -6.04576 v -6.05315 h 9.07234 q 1.24753,0 2.13336,0.88583 0.88583,0.89321 0.88583,2.14075 v 24.19043 q 0,1.24754 -0.88583,2.14075 -0.88583,0.87845 -2.13336,0.87845 z m 36.28196,-6.04577 q -1.25492,0 -2.14074,-0.87844 -0.88583,-0.89321 -0.88583,-2.14075 0,-1.25492 0.88583,-2.14075 0.88582,-0.88582 2.14074,-0.88582 1.24754,0 2.14075,0.88582 0.87844,0.88583 0.87844,2.14075 0,1.24754 -0.87844,2.14075 -0.89321,0.87844 -2.14075,0.87844 z m -21.16386,6.04577 v -27.20225 q 0,-1.25492 0.87844,-2.14075 0.89321,-0.89321 2.14075,-0.89321 h 18.14467 q 1.24754,0 2.14075,0.88583 0.87844,0.89321 0.87844,2.14075 v 6.04576 q 0,1.25492 -0.87844,2.14075 -0.89321,0.88582 -2.14075,0.88582 -1.25492,0 -2.14074,-0.88582 -0.88583,-0.88583 -0.88583,-2.14075 v -3.01919 h -12.09153 v 24.18306 z m 33.25539,0 q -1.24754,0 -2.14075,-0.87845 -0.87844,-0.89321 -0.87844,-2.14075 v -15.1181 h 6.04576 v 15.1181 q 0,1.24754 -0.88582,2.14075 -0.88583,0.87845 -2.14075,0.87845 z m 12.09891,0 q -1.25492,0 -2.14075,-0.87845 -0.88582,-0.89321 -0.88582,-2.14075 v -15.1181 h 6.04576 v 15.1181 q 0,1.24754 -0.88583,2.14075 -0.88582,0.87845 -2.13336,0.87845 z m 12.09153,0 q -1.25492,0 -2.14075,-0.87845 -0.88583,-0.89321 -0.88583,-2.14075 v -21.16386 h -24.18305 v -6.05315 h 27.20963 q 1.24754,0 2.14074,0.88583 0.88583,0.89321 0.88583,2.14075 v 24.19043 q 0,1.24754 -0.88583,2.14075 -0.8932,0.87845 -2.14074,0.87845 z m 30.2362,-6.04577 q -1.25492,0 -2.14075,-0.87844 -0.88583,-0.89321 -0.88583,-2.14075 0,-1.25492 0.88583,-2.14075 0.88583,-0.88582 2.14075,-0.88582 1.24754,0 2.14074,0.88582 0.87845,0.88583 0.87845,2.14075 0,1.24754 -0.87845,2.14075 -0.8932,0.87844 -2.14074,0.87844 z m -21.16387,6.04577 v -27.20225 q 0,-1.25492 0.87845,-2.14075 0.89321,-0.89321 2.14074,-0.89321 h 18.14468 q 1.24754,0 2.14074,0.88583 0.87845,0.89321 0.87845,2.14075 v 6.04576 q 0,1.25492 -0.87845,2.14075 -0.8932,0.88582 -2.14074,0.88582 -1.25492,0 -2.14075,-0.88582 -0.88583,-0.88583 -0.88583,-2.14075 v -3.01919 h -12.09152 v 24.18306 z m 33.25539,0 q -1.24754,0 -2.14074,-0.87845 -0.87845,-0.89321 -0.87845,-2.14075 0,-1.25492 0.87845,-2.14074 0.8932,-0.88583 2.14074,-0.88583 1.25492,0 2.14075,0.88583 0.88583,0.88582 0.88583,2.14074 0,1.24754 -0.88583,2.14075 -0.88583,0.87845 -2.14075,0.87845 z m 0,-12.09153 q -1.24754,0 -2.14074,-0.88583 -0.87845,-0.88582 -0.87845,-2.14074 v -15.11811 h 6.04577 v 15.11811 q 0,1.25492 -0.88583,2.14074 -0.88583,0.88583 -2.14075,0.88583 z m 12.09153,12.09153 q -1.24754,0 -2.14074,-0.87845 -0.87845,-0.89321 -0.87845,-2.14075 0,-1.25492 0.87845,-2.14074 0.8932,-0.88583 2.14074,-0.88583 h 15.1181 v 6.04577 z m 6.04577,-12.09153 q -1.24754,0 -2.14075,-0.88583 -0.87844,-0.88582 -0.87844,-2.14074 0,-1.24754 0.87844,-2.13337 0.89321,-0.88583 2.14075,-0.88583 1.25492,0 2.14074,0.88583 0.88583,0.88583 0.88583,2.13337 0,1.25492 -0.88583,2.14074 -0.88582,0.88583 -2.14074,0.88583 z m -9.06496,-12.09153 v -6.05315 h 15.1181 q 1.24754,0 2.13337,0.88583 0.88582,0.89321 0.88582,2.14075 0,1.25492 -0.88582,2.14074 -0.88583,0.88583 -2.13337,0.88583 z m 51.39268,18.13729 3.01919,-6.04576 h -12.09152 l 3.01919,6.04576 z m -9.07233,6.04577 -9.06496,-18.1373 h 30.22882 l -9.07234,18.1373 z m -6.04577,-24.18306 v -6.05315 h 21.16387 q 1.24754,0 2.14074,0.88583 0.87845,0.89321 0.87845,2.14075 0,1.25492 -0.87845,2.14074 -0.8932,0.88583 -2.14074,0.88583 z m 44.59396,12.09153 q -1.25492,0 -2.14074,-0.88583 -0.88583,-0.88582 -0.88583,-2.14074 0,-1.24754 0.88583,-2.13337 0.88582,-0.88583 2.14074,-0.88583 1.24754,0 2.13337,0.88583 0.88582,0.88583 0.88582,2.13337 0,1.25492 -0.88582,2.14074 -0.88583,0.88583 -2.13337,0.88583 z m 9.06496,6.04576 v -18.13729 h -18.13729 v 18.13729 z m -21.16387,6.04577 q -1.24753,0 -2.14074,-0.87845 -0.87845,-0.89321 -0.87845,-2.14075 v -27.21701 h 27.20963 q 1.24754,0 2.14075,0.88583 0.88582,0.89321 0.88582,2.14075 v 24.19043 q 0,1.24754 -0.88582,2.14075 -0.89321,0.87845 -2.14075,0.87845 z m 45.35431,0 v -9.06496 q 0,-1.25492 0.88582,-2.14075 0.88583,-0.88582 2.14075,-0.88582 1.24754,0 2.13337,0.88582 0.88582,0.88583 0.88582,2.14075 v 9.06496 z m -9.07234,0 q -1.24754,0 -2.14074,-0.87845 -0.87845,-0.89321 -0.87845,-2.14075 v -27.21701 h 6.04576 v 27.21701 q 0,1.24754 -0.88582,2.14075 -0.88583,0.87845 -2.14075,0.87845 z m 24.19044,0 q -1.25492,0 -2.14075,-0.87845 -0.88582,-0.89321 -0.88582,-2.14075 v -27.21701 h 6.05314 v 27.21701 q 0,1.24754 -0.88582,2.14075 -0.89321,0.87845 -2.14075,0.87845 z m 12.09153,0 q -1.24754,0 -2.14075,-0.87845 -0.87844,-0.89321 -0.87844,-2.14075 0,-1.25492 0.87844,-2.14074 0.89321,-0.88583 2.14075,-0.88583 h 15.1181 v 6.04577 z m 6.04576,-12.09153 q -1.24754,0 -2.14074,-0.88583 -0.87845,-0.88582 -0.87845,-2.14074 0,-1.24754 0.87845,-2.13337 0.8932,-0.88583 2.14074,-0.88583 1.25492,0 2.14075,0.88583 0.88583,0.88583 0.88583,2.13337 0,1.25492 -0.88583,2.14074 -0.88583,0.88583 -2.14075,0.88583 z m -9.06495,-12.09153 v -6.05315 h 15.1181 q 1.24754,0 2.13336,0.88583 0.88583,0.89321 0.88583,2.14075 0,1.25492 -0.88583,2.14074 -0.88582,0.88583 -2.13336,0.88583 z m 39.29376,24.18306 q -1.24754,0 -2.14075,-0.87845 -0.87845,-0.89321 -0.87845,-2.14075 v -15.1181 h 6.04577 v 15.1181 q 0,1.24754 -0.88583,2.14075 -0.88582,0.87845 -2.14074,0.87845 z m 12.0989,0 q -1.25492,0 -2.14074,-0.87845 -0.88583,-0.89321 -0.88583,-2.14075 v -21.16386 h -12.09153 v -6.05315 h 15.1181 q 1.24754,0 2.13337,0.88583 0.88583,0.89321 0.88583,2.14075 v 24.19043 q 0,1.24754 -0.88583,2.14075 -0.88583,0.87845 -2.13337,0.87845 z m 12.08417,-12.09153 q -1.24754,0 -2.14075,-0.88583 -0.87844,-0.88582 -0.87844,-2.14074 0,-1.24754 0.87844,-2.13337 0.89321,-0.88583 2.14075,-0.88583 1.25492,0 2.14075,0.88583 0.88582,0.88583 0.88582,2.13337 0,1.25492 -0.88582,2.14074 -0.88583,0.88583 -2.14075,0.88583 z m 6.04576,12.09153 q -1.24753,0 -2.14074,-0.87845 -0.87845,-0.89321 -0.87845,-2.14075 0,-1.25492 0.87845,-2.14074 0.89321,-0.88583 2.14074,-0.88583 h 9.07234 v -6.04576 h -6.04576 v -6.04577 h 6.04576 v -6.04576 h -18.13729 v -6.05315 h 18.13729 q 2.50984,0 4.27411,1.77904 1.77165,1.77165 1.77165,4.27411 v 18.13729 q 0,2.50984 -1.77165,4.27411 -1.77165,1.77166 -4.27411,1.77166 z m 36.28197,0 q -1.24754,0 -2.14075,-0.87845 -0.87844,-0.89321 -0.87844,-2.14075 0,-1.25492 0.87844,-2.14074 0.89321,-0.88583 2.14075,-0.88583 h 15.1181 v 6.04577 z m 6.04576,-12.09153 q -1.24754,0 -2.14074,-0.88583 -0.87845,-0.88582 -0.87845,-2.14074 0,-1.24754 0.87845,-2.13337 0.8932,-0.88583 2.14074,-0.88583 1.25492,0 2.14075,0.88583 0.88583,0.88583 0.88583,2.13337 0,1.25492 -0.88583,2.14074 -0.88583,0.88583 -2.14075,0.88583 z m -9.06495,-12.09153 v -6.05315 h 15.1181 q 1.24754,0 2.13336,0.88583 0.88583,0.89321 0.88583,2.14075 0,1.25492 -0.88583,2.14074 -0.88582,0.88583 -2.13336,0.88583 z m 45.34691,18.13729 q -1.25492,0 -2.14075,-0.87844 -0.88583,-0.89321 -0.88583,-2.14075 0,-1.25492 0.88583,-2.14075 0.88583,-0.88582 2.14075,-0.88582 1.24753,0 2.14074,0.88582 0.87845,0.88583 0.87845,2.14075 0,1.24754 -0.87845,2.14075 -0.89321,0.87844 -2.14074,0.87844 z m -21.16387,6.04577 v -27.20225 q 0,-1.25492 0.87845,-2.14075 0.8932,-0.89321 2.14074,-0.89321 h 18.14468 q 1.24753,0 2.14074,0.88583 0.87845,0.89321 0.87845,2.14075 v 6.04576 q 0,1.25492 -0.87845,2.14075 -0.89321,0.88582 -2.14074,0.88582 -1.25492,0 -2.14075,-0.88582 -0.88583,-0.88583 -0.88583,-2.14075 v -3.01919 H 682.7408 v 24.18306 z m 42.32774,0 v -9.06496 q 0,-1.25492 0.88582,-2.14075 0.88583,-0.88582 2.14075,-0.88582 1.24754,0 2.13336,0.88582 0.88583,0.88583 0.88583,2.14075 v 9.06496 z m -9.07234,0 q -1.24754,0 -2.14075,-0.87845 -0.87844,-0.89321 -0.87844,-2.14075 v -27.21701 h 6.04576 v 27.21701 q 0,1.24754 -0.88582,2.14075 -0.88583,0.87845 -2.14075,0.87845 z m 24.19044,0 q -1.25492,0 -2.14075,-0.87845 -0.88583,-0.89321 -0.88583,-2.14075 v -27.21701 h 6.05315 v 27.21701 q 0,1.24754 -0.88583,2.14075 -0.89321,0.87845 -2.14074,0.87845 z m 24.19042,0 q -1.25492,0 -2.14075,-0.87845 -0.88582,-0.89321 -0.88582,-2.14075 0,-1.25492 0.88582,-2.14074 0.88583,-0.88583 2.14075,-0.88583 1.24754,0 2.13337,0.88583 0.88582,0.88582 0.88582,2.14074 0,1.24754 -0.88582,2.14075 -0.88583,0.87845 -2.13337,0.87845 z m 0,-12.09153 q -1.25492,0 -2.14075,-0.88583 -0.88582,-0.88582 -0.88582,-2.14074 0,-1.24754 0.88582,-2.13337 0.88583,-0.88583 2.14075,-0.88583 1.24754,0 2.13337,0.88583 0.88582,0.88583 0.88582,2.13337 0,1.25492 -0.88582,2.14074 -0.88583,0.88583 -2.13337,0.88583 z m -15.1181,12.09153 v -24.18306 q 0,-2.50984 1.77165,-4.27411 1.77166,-1.77904 4.27411,-1.77904 h 9.07234 q 1.24754,0 2.13337,0.88583 0.88582,0.89321 0.88582,2.14075 0,1.25492 -0.88582,2.14074 -0.88583,0.88583 -2.13337,0.88583 h -9.07234 v 24.18306 z m 27.20224,-12.09153 q -1.24754,0 -2.14075,-0.88583 -0.87845,-0.88582 -0.87845,-2.14074 0,-1.24754 0.87845,-2.13337 0.89321,-0.88583 2.14075,-0.88583 1.25492,0 2.14074,0.88583 0.88583,0.88583 0.88583,2.13337 0,1.25492 -0.88583,2.14074 -0.88582,0.88583 -2.14074,0.88583 z m 6.04576,12.09153 q -1.24754,0 -2.14075,-0.87845 -0.87844,-0.89321 -0.87844,-2.14075 0,-1.25492 0.87844,-2.14074 0.89321,-0.88583 2.14075,-0.88583 h 9.07234 v -6.04576 h -6.04577 v -6.04577 h 6.04577 v -6.04576 h -18.1373 v -6.05315 h 18.1373 q 2.50984,0 4.27411,1.77904 1.77165,1.77165 1.77165,4.27411 v 18.13729 q 0,2.50984 -1.77165,4.27411 -1.77166,1.77166 -4.27411,1.77166 z m 30.23621,0 q -1.24754,0 -2.14075,-0.87845 -0.87845,-0.89321 -0.87845,-2.14075 0,-1.25492 0.87845,-2.14074 0.89321,-0.88583 2.14075,-0.88583 h 15.1181 v 6.04577 z m -6.04577,-9.06496 q -1.24754,0 -2.14074,-0.88583 -0.87845,-0.88582 -0.87845,-2.14074 0,-1.24754 0.87845,-2.14075 0.8932,-0.88582 2.14074,-0.88582 1.25492,0 2.14075,0.88582 0.88582,0.89321 0.88582,2.14075 0,1.25492 -0.88582,2.14074 -0.88583,0.88583 -2.14075,0.88583 z m 18.14467,-6.05314 q -1.25492,0 -2.14074,-0.87845 -0.88583,-0.89321 -0.88583,-2.14075 0,-1.25492 0.88583,-2.14074 0.88582,-0.88583 2.14074,-0.88583 1.24754,0 2.14075,0.88583 0.87845,0.88582 0.87845,2.14074 0,1.24754 -0.87845,2.14075 -0.89321,0.87845 -2.14075,0.87845 z m -21.16386,-9.06496 v -6.05315 h 15.1181 q 1.24754,0 2.13337,0.88583 0.88582,0.89321 0.88582,2.14075 0,1.25492 -0.88582,2.14074 -0.88583,0.88583 -2.13337,0.88583 z"
         id="path2" />
      <path
         d="m 390.62116,225.82359 q -1.24753,0 -2.14074,-0.87845 -0.87845,-0.8932 -0.87845,-2.14074 0,-1.25492 0.87845,-2.14075 0.89321,-0.88583 2.14074,-0.88583 h 15.1181 v 6.04577 z m 6.04577,-12.09153 q -1.24754,0 -2.14075,-0.88583 -0.87844,-0.88582 -0.87844,-2.14074 0,-1.24754 0.87844,-2.13337 0.89321,-0.88582 2.14075,-0.88582 1.25492,0 2.14074,0.88582 0.88583,0.88583 0.88583,2.13337 0,1.25492 -0.88583,2.14074 -0.88582,0.88583 -2.14074,0.88583 z m -9.06496,-12.09153 v -6.05314 h 15.1181 q 1.24754,0 2.13337,0.88582 0.88582,0.89321 0.88582,2.14075 0,1.25492 -0.88582,2.14075 -0.88583,0.88582 -2.13337,0.88582 z m 27.20225,24.18306 q -1.24754,0 -2.14075,-0.87845 -0.87844,-0.8932 -0.87844,-2.14074 0,-1.25492 0.87844,-2.14075 0.89321,-0.88583 2.14075,-0.88583 1.25492,0 2.14074,0.88583 0.88583,0.88583 0.88583,2.14075 0,1.24754 -0.88583,2.14074 -0.88582,0.87845 -2.14074,0.87845 z m 0,-12.09153 q -1.24754,0 -2.14075,-0.88583 -0.87844,-0.88582 -0.87844,-2.14074 v -15.1181 h 6.04576 v 15.1181 q 0,1.25492 -0.88583,2.14074 -0.88582,0.88583 -2.14074,0.88583 z m 36.28196,6.04576 3.01919,-6.04576 h -12.09153 l 3.0192,6.04576 z m -9.07234,6.04577 -9.06495,-18.13729 h 30.22882 l -9.07234,18.13729 z m -6.04576,-24.18306 v -6.05314 h 21.16386 q 1.24754,0 2.14075,0.88582 0.87845,0.89321 0.87845,2.14075 0,1.25492 -0.87845,2.14075 -0.89321,0.88582 -2.14075,0.88582 z m 44.59397,12.09153 q -1.25493,0 -2.14075,-0.88583 -0.88583,-0.88582 -0.88583,-2.14074 0,-1.24754 0.88583,-2.13337 0.88582,-0.88582 2.14075,-0.88582 1.24753,0 2.13336,0.88582 0.88583,0.88583 0.88583,2.13337 0,1.25492 -0.88583,2.14074 -0.88583,0.88583 -2.13336,0.88583 z m 9.06495,6.04576 v -18.13729 h -18.13729 v 18.13729 z m -21.16386,6.04577 q -1.24754,0 -2.14075,-0.87845 -0.87845,-0.8932 -0.87845,-2.14074 v -27.21701 h 27.20963 q 1.24754,0 2.14075,0.88582 0.88583,0.89321 0.88583,2.14075 v 24.19044 q 0,1.24754 -0.88583,2.14074 -0.89321,0.87845 -2.14075,0.87845 z m 45.3543,0 v -9.06496 q 0,-1.25492 0.88583,-2.14074 0.88582,-0.88583 2.14074,-0.88583 1.24754,0 2.13337,0.88583 0.88582,0.88582 0.88582,2.14074 v 9.06496 z m -9.07234,0 q -1.24754,0 -2.14074,-0.87845 -0.87845,-0.8932 -0.87845,-2.14074 v -27.21701 h 6.04577 v 27.21701 q 0,1.24754 -0.88583,2.14074 -0.88583,0.87845 -2.14075,0.87845 z m 24.19044,0 q -1.25492,0 -2.14075,-0.87845 -0.88582,-0.8932 -0.88582,-2.14074 v -27.21701 h 6.05314 v 27.21701 q 0,1.24754 -0.88582,2.14074 -0.89321,0.87845 -2.14075,0.87845 z m 12.09152,0 q -1.24754,0 -2.14074,-0.87845 -0.87845,-0.8932 -0.87845,-2.14074 0,-1.25492 0.87845,-2.14075 0.8932,-0.88583 2.14074,-0.88583 h 15.1181 v 6.04577 z m 6.04577,-12.09153 q -1.24754,0 -2.14075,-0.88583 -0.87844,-0.88582 -0.87844,-2.14074 0,-1.24754 0.87844,-2.13337 0.89321,-0.88582 2.14075,-0.88582 1.25492,0 2.14074,0.88582 0.88583,0.88583 0.88583,2.13337 0,1.25492 -0.88583,2.14074 -0.88582,0.88583 -2.14074,0.88583 z m -9.06496,-12.09153 v -6.05314 h 15.1181 q 1.24754,0 2.13337,0.88582 0.88582,0.89321 0.88582,2.14075 0,1.25492 -0.88582,2.14075 -0.88583,0.88582 -2.13337,0.88582 z m 39.29377,24.18306 q -1.24753,0 -2.14074,-0.87845 -0.87845,-0.8932 -0.87845,-2.14074 0,-1.25492 0.87845,-2.14075 0.89321,-0.88583 2.14074,-0.88583 h 15.1181 v 6.04577 z m 6.04577,-12.09153 q -1.24754,0 -2.14075,-0.88583 -0.87844,-0.88582 -0.87844,-2.14074 0,-1.24754 0.87844,-2.13337 0.89321,-0.88582 2.14075,-0.88582 1.25492,0 2.14074,0.88582 0.88583,0.88583 0.88583,2.13337 0,1.25492 -0.88583,2.14074 -0.88582,0.88583 -2.14074,0.88583 z m -9.06496,-12.09153 v -6.05314 h 15.1181 q 1.24754,0 2.13337,0.88582 0.88582,0.89321 0.88582,2.14075 0,1.25492 -0.88582,2.14075 -0.88583,0.88582 -2.13337,0.88582 z m 45.34693,18.13729 q -1.25492,0 -2.14075,-0.87844 -0.88583,-0.89321 -0.88583,-2.14075 0,-1.25492 0.88583,-2.14074 0.88583,-0.88583 2.14075,-0.88583 1.24754,0 2.14074,0.88583 0.87845,0.88582 0.87845,2.14074 0,1.24754 -0.87845,2.14075 -0.8932,0.87844 -2.14074,0.87844 z m -21.16387,6.04577 v -27.20225 q 0,-1.25492 0.87845,-2.14074 0.89321,-0.89321 2.14074,-0.89321 h 18.14468 q 1.24754,0 2.14074,0.88582 0.87845,0.89321 0.87845,2.14075 v 6.04576 q 0,1.25492 -0.87845,2.14075 -0.8932,0.88583 -2.14074,0.88583 -1.25492,0 -2.14075,-0.88583 -0.88583,-0.88583 -0.88583,-2.14075 v -3.01919 h -12.09152 v 24.18306 z m 45.35429,-6.04577 3.0192,-6.04576 h -12.09153 l 3.01919,6.04576 z m -9.07233,6.04577 -9.06496,-18.13729 h 30.22882 l -9.07233,18.13729 z m -6.04577,-24.18306 v -6.05314 h 21.16387 q 1.24754,0 2.14074,0.88582 0.87845,0.89321 0.87845,2.14075 0,1.25492 -0.87845,2.14075 -0.8932,0.88582 -2.14074,0.88582 z m 32.49506,12.09153 q -1.24754,0 -2.14075,-0.88583 -0.87845,-0.88582 -0.87845,-2.14074 0,-1.24754 0.87845,-2.13337 0.89321,-0.88582 2.14075,-0.88582 1.25492,0 2.14074,0.88582 0.88583,0.88583 0.88583,2.13337 0,1.25492 -0.88583,2.14074 -0.88582,0.88583 -2.14074,0.88583 z m 6.04576,12.09153 q -1.24754,0 -2.14075,-0.87845 -0.87844,-0.8932 -0.87844,-2.14074 0,-1.25492 0.87844,-2.14075 0.89321,-0.88583 2.14075,-0.88583 h 9.07234 v -6.04576 h -6.04577 v -6.04576 h 6.04577 v -6.04577 h -18.1373 v -6.05314 h 18.1373 q 2.50984,0 4.27411,1.77903 1.77165,1.77165 1.77165,4.27411 v 18.13729 q 0,2.50984 -1.77165,4.27412 -1.77166,1.77165 -4.27411,1.77165 z m 30.23621,0 q -1.24754,0 -2.14075,-0.87845 -0.87845,-0.8932 -0.87845,-2.14074 0,-1.25492 0.87845,-2.14075 0.89321,-0.88583 2.14075,-0.88583 h 15.1181 v 6.04577 z m -6.04577,-9.06496 q -1.24754,0 -2.14074,-0.88582 -0.87845,-0.88583 -0.87845,-2.14075 0,-1.24754 0.87845,-2.14075 0.8932,-0.88582 2.14074,-0.88582 1.25492,0 2.14075,0.88582 0.88582,0.89321 0.88582,2.14075 0,1.25492 -0.88582,2.14075 -0.88583,0.88582 -2.14075,0.88582 z m 18.14467,-6.05314 q -1.25492,0 -2.14074,-0.87845 -0.88583,-0.89321 -0.88583,-2.14074 0,-1.25492 0.88583,-2.14075 0.88582,-0.88583 2.14074,-0.88583 1.24754,0 2.14075,0.88583 0.87845,0.88583 0.87845,2.14075 0,1.24753 -0.87845,2.14074 -0.89321,0.87845 -2.14075,0.87845 z m -21.16386,-9.06496 v -6.05314 h 15.1181 q 1.24754,0 2.13337,0.88582 0.88582,0.89321 0.88582,2.14075 0,1.25492 -0.88582,2.14075 -0.88583,0.88582 -2.13337,0.88582 z"
         id="path3" />
      <path
         d="m 296.14042,286.29598 q -1.24754,0 -2.14075,-0.87844 -0.87844,-0.89321 -0.87844,-2.14075 0,-1.25492 0.87844,-2.14074 0.89321,-0.88583 2.14075,-0.88583 1.25492,0 2.14075,0.88583 0.88582,0.88582 0.88582,2.14074 0,1.24754 -0.88582,2.14075 -0.88583,0.87844 -2.14075,0.87844 z m 0,-12.09152 q -1.24754,0 -2.14075,-0.88583 -0.87844,-0.88583 -0.87844,-2.14075 v -15.1181 h 6.04576 v 15.1181 q 0,1.25492 -0.88582,2.14075 -0.88583,0.88583 -2.14075,0.88583 z m 24.19044,12.09152 q -1.25492,0 -2.14075,-0.87844 -0.88583,-0.89321 -0.88583,-2.14075 v -9.07233 h -12.09152 v -6.04577 h 15.1181 q 1.24753,0 2.13336,0.88583 0.88583,0.88583 0.88583,2.13336 v 12.09891 q 0,1.24754 -0.88583,2.14075 -0.88583,0.87844 -2.13336,0.87844 z m -12.09891,-24.18305 q -1.24754,0 -2.14075,-0.88583 -0.87844,-0.88582 -0.87844,-2.14074 0,-1.24754 0.87844,-2.14075 0.89321,-0.88583 2.14075,-0.88583 1.25492,0 2.14074,0.88583 0.88583,0.89321 0.88583,2.14075 0,1.25492 -0.88583,2.14074 -0.88582,0.88583 -2.14074,0.88583 z m 12.09891,0 q -1.25492,0 -2.14075,-0.88583 -0.88583,-0.88582 -0.88583,-2.14074 0,-1.24754 0.88583,-2.14075 0.88583,-0.88583 2.14075,-0.88583 1.24753,0 2.13336,0.88583 0.88583,0.89321 0.88583,2.14075 0,1.25492 -0.88583,2.14074 -0.88583,0.88583 -2.13336,0.88583 z m 24.17567,24.18305 q -1.24754,0 -2.14075,-0.87844 -0.87844,-0.89321 -0.87844,-2.14075 0,-1.25492 0.87844,-2.14074 0.89321,-0.88583 2.14075,-0.88583 h 15.1181 v 6.04576 z m 6.04576,-12.09152 q -1.24754,0 -2.14075,-0.88583 -0.87844,-0.88583 -0.87844,-2.14075 0,-1.24753 0.87844,-2.13336 0.89321,-0.88583 2.14075,-0.88583 1.25492,0 2.14075,0.88583 0.88582,0.88583 0.88582,2.13336 0,1.25492 -0.88582,2.14075 -0.88583,0.88583 -2.14075,0.88583 z m -9.06495,-12.09153 v -6.05315 h 15.1181 q 1.24754,0 2.13336,0.88583 0.88583,0.89321 0.88583,2.14075 0,1.25492 -0.88583,2.14074 -0.88582,0.88583 -2.13336,0.88583 z m 36.27458,24.18305 v -9.06495 q 0,-1.25492 0.88583,-2.14075 0.88582,-0.88582 2.14074,-0.88582 1.24754,0 2.13337,0.88582 0.88582,0.88583 0.88582,2.14075 v 9.06495 z m -9.07234,0 q -1.24754,0 -2.14074,-0.87844 -0.87845,-0.89321 -0.87845,-2.14075 v -27.21701 h 6.04577 v 27.21701 q 0,1.24754 -0.88583,2.14075 -0.88583,0.87844 -2.14075,0.87844 z m 24.19044,0 q -1.25492,0 -2.14075,-0.87844 -0.88582,-0.89321 -0.88582,-2.14075 v -27.21701 h 6.05314 v 27.21701 q 0,1.24754 -0.88582,2.14075 -0.89321,0.87844 -2.14075,0.87844 z m 24.19043,-9.06495 q -1.25492,0 -2.14074,-0.88583 -0.88583,-0.88582 -0.88583,-2.14074 0,-1.24754 0.88583,-2.14075 0.88582,-0.88583 2.14074,-0.88583 1.24754,0 2.13337,0.88583 0.88582,0.89321 0.88582,2.14075 0,1.25492 -0.88582,2.14074 -0.88583,0.88583 -2.13337,0.88583 z m 0,15.11072 q -1.25492,0 -2.14074,-0.88583 -0.88583,-0.88582 -0.88583,-2.14074 v -3.0192 h -15.11072 v -6.04576 l 12.08415,-24.19044 h 6.05314 l -12.09891,24.19044 h 12.09891 q 1.24754,0 2.13337,0.88583 0.88582,0.88582 0.88582,2.14074 v 6.03839 q 0,1.25492 -0.88582,2.14074 -0.88583,0.88583 -2.13337,0.88583 z m 24.18305,-15.11072 q -1.25492,0 -2.14074,-0.88583 -0.88583,-0.88582 -0.88583,-2.14074 0,-1.24754 0.88583,-2.14075 0.88582,-0.88583 2.14074,-0.88583 1.24754,0 2.13337,0.88583 0.88582,0.89321 0.88582,2.14075 0,1.25492 -0.88582,2.14074 -0.88583,0.88583 -2.13337,0.88583 z m 0,15.11072 q -1.25492,0 -2.14074,-0.88583 -0.88583,-0.88582 -0.88583,-2.14074 v -3.0192 h -15.11072 v -6.04576 l 12.08415,-24.19044 h 6.05314 l -12.09891,24.19044 h 12.09891 q 1.24754,0 2.13337,0.88583 0.88582,0.88582 0.88582,2.14074 v 6.03839 q 0,1.25492 -0.88582,2.14074 -0.88583,0.88583 -2.13337,0.88583 z m 12.08415,-6.04577 q -1.24753,0 -2.14074,-0.87844 -0.87845,-0.89321 -0.87845,-2.14075 0,-1.25492 0.87845,-2.14074 0.89321,-0.88583 2.14074,-0.88583 1.25492,0 2.14075,0.88583 0.88583,0.88582 0.88583,2.14074 0,1.24754 -0.88583,2.14075 -0.88583,0.87844 -2.14075,0.87844 z m 0,-12.09152 q -1.24753,0 -2.14074,-0.88583 -0.87845,-0.88583 -0.87845,-2.14075 v -15.1181 h 6.04577 v 15.1181 q 0,1.25492 -0.88583,2.14075 -0.88583,0.88583 -2.14075,0.88583 z m 12.09153,12.09152 q -1.24754,0 -2.14075,-0.87844 -0.87844,-0.89321 -0.87844,-2.14075 0,-1.25492 0.87844,-2.14074 0.89321,-0.88583 2.14075,-0.88583 h 21.16386 v 6.04576 z m -3.01919,-12.09152 v -12.09153 q 0,-2.50984 1.77165,-4.27411 1.77165,-1.77904 4.27411,-1.77904 h 12.09153 q 2.50984,0 4.27411,1.77904 1.77165,1.77165 1.77165,4.27411 v 9.06495 q 0,1.25492 -0.87844,2.14075 -0.89321,0.88583 -2.14075,0.88583 -1.25492,0 -2.14075,-0.88583 -0.88582,-0.88583 -0.88582,-2.14075 v -9.06495 h -12.09153 v 12.09153 z m 42.32772,12.09152 v -6.04576 h 21.16387 q 1.24754,0 2.14074,0.88583 0.87845,0.88582 0.87845,2.14074 0,1.24754 -0.87845,2.14075 -0.8932,0.87844 -2.14074,0.87844 z m 3.01919,-24.18305 q -1.24753,0 -2.14074,-0.88583 -0.87845,-0.88582 -0.87845,-2.14074 0,-1.24754 0.87845,-2.14075 0.89321,-0.88583 2.14074,-0.88583 1.25493,0 2.14075,0.88583 0.88583,0.89321 0.88583,2.14075 0,1.25492 -0.88583,2.14074 -0.88582,0.88583 -2.14075,0.88583 z m 0,12.09153 q -1.24753,0 -2.14074,-0.88583 -0.87845,-0.88583 -0.87845,-2.14075 0,-1.24753 0.87845,-2.13336 0.89321,-0.88583 2.14074,-0.88583 h 15.11811 v -6.04576 h -6.04577 v -6.05315 h 9.07234 q 1.24754,0 2.14074,0.88583 0.87845,0.89321 0.87845,2.14075 v 12.09152 q 0,1.25492 -0.87845,2.14075 -0.8932,0.88583 -2.14074,0.88583 z m 30.23621,0 q -1.24754,0 -2.14075,-0.88583 -0.87844,-0.88583 -0.87844,-2.14075 0,-1.24753 0.87844,-2.13336 0.89321,-0.88583 2.14075,-0.88583 1.25492,0 2.14075,0.88583 0.88582,0.88583 0.88582,2.13336 0,1.25492 -0.88582,2.14075 -0.88583,0.88583 -2.14075,0.88583 z m 6.04576,12.09152 q -1.24753,0 -2.14074,-0.87844 -0.87845,-0.89321 -0.87845,-2.14075 0,-1.25492 0.87845,-2.14074 0.89321,-0.88583 2.14074,-0.88583 h 9.07234 v -6.04576 h -6.04576 v -6.04577 h 6.04576 v -6.04576 h -18.13729 v -6.05315 h 18.13729 q 2.50984,0 4.27411,1.77904 1.77165,1.77165 1.77165,4.27411 v 18.13729 q 0,2.50984 -1.77165,4.27411 -1.77165,1.77165 -4.27411,1.77165 z m 33.26278,0 v -6.04576 h 21.16386 q 1.24754,0 2.14075,0.88583 0.87844,0.88582 0.87844,2.14074 0,1.24754 -0.87844,2.14075 -0.89321,0.87844 -2.14075,0.87844 z m 3.01919,-24.18305 q -1.24754,0 -2.14075,-0.88583 -0.87844,-0.88582 -0.87844,-2.14074 0,-1.24754 0.87844,-2.14075 0.89321,-0.88583 2.14075,-0.88583 1.25492,0 2.14075,0.88583 0.88582,0.89321 0.88582,2.14075 0,1.25492 -0.88582,2.14074 -0.88583,0.88583 -2.14075,0.88583 z m 0,12.09153 q -1.24754,0 -2.14075,-0.88583 -0.87844,-0.88583 -0.87844,-2.14075 0,-1.24753 0.87844,-2.13336 0.89321,-0.88583 2.14075,-0.88583 h 15.1181 v -6.04576 h -6.04576 v -6.05315 h 9.07233 q 1.24754,0 2.14075,0.88583 0.87844,0.89321 0.87844,2.14075 v 12.09152 q 0,1.25492 -0.87844,2.14075 -0.89321,0.88583 -2.14075,0.88583 z m 30.23621,0 q -1.24754,0 -2.14075,-0.88583 -0.87845,-0.88583 -0.87845,-2.14075 0,-1.24753 0.87845,-2.13336 0.89321,-0.88583 2.14075,-0.88583 1.25492,0 2.14074,0.88583 0.88583,0.88583 0.88583,2.13336 0,1.25492 -0.88583,2.14075 -0.88582,0.88583 -2.14074,0.88583 z m 6.04576,12.09152 q -1.24754,0 -2.14075,-0.87844 -0.87844,-0.89321 -0.87844,-2.14075 0,-1.25492 0.87844,-2.14074 0.89321,-0.88583 2.14075,-0.88583 h 9.07234 v -6.04576 h -6.04577 v -6.04577 h 6.04577 v -6.04576 h -18.1373 v -6.05315 h 18.1373 q 2.50984,0 4.27411,1.77904 1.77165,1.77165 1.77165,4.27411 v 18.13729 q 0,2.50984 -1.77165,4.27411 -1.77166,1.77165 -4.27411,1.77165 z m 24.19041,0 q -1.24754,0 -2.14075,-0.87844 -0.87844,-0.89321 -0.87844,-2.14075 v -15.1181 h 6.04576 v 15.1181 q 0,1.24754 -0.88582,2.14075 -0.88583,0.87844 -2.14075,0.87844 z m 12.09891,0 q -1.25492,0 -2.14075,-0.87844 -0.88582,-0.89321 -0.88582,-2.14075 v -15.1181 h 6.04576 v 15.1181 q 0,1.24754 -0.88583,2.14075 -0.88582,0.87844 -2.13336,0.87844 z m 12.09153,0 q -1.25492,0 -2.14075,-0.87844 -0.88583,-0.89321 -0.88583,-2.14075 v -21.16386 h -24.18305 v -6.05315 h 27.20963 q 1.24754,0 2.14074,0.88583 0.88583,0.89321 0.88583,2.14075 v 24.19043 q 0,1.24754 -0.88583,2.14075 -0.8932,0.87844 -2.14074,0.87844 z m 30.23622,-6.04576 q -1.25492,0 -2.14075,-0.87844 -0.88583,-0.89321 -0.88583,-2.14075 0,-1.25492 0.88583,-2.14075 0.88583,-0.88582 2.14075,-0.88582 1.24753,0 2.14074,0.88582 0.87845,0.88583 0.87845,2.14075 0,1.24754 -0.87845,2.14075 -0.89321,0.87844 -2.14074,0.87844 z m -21.16387,6.04576 v -27.20224 q 0,-1.25492 0.87845,-2.14075 0.8932,-0.89321 2.14074,-0.89321 h 18.14468 q 1.24753,0 2.14074,0.88583 0.87845,0.89321 0.87845,2.14075 v 6.04576 q 0,1.25492 -0.87845,2.14075 -0.89321,0.88582 -2.14074,0.88582 -1.25492,0 -2.14075,-0.88582 -0.88583,-0.88583 -0.88583,-2.14075 v -3.01919 h -12.09152 v 24.18305 z m 33.2554,0 q -1.24754,0 -2.14075,-0.87844 -0.87844,-0.89321 -0.87844,-2.14075 v -15.1181 h 6.04576 v 15.1181 q 0,1.24754 -0.88582,2.14075 -0.88583,0.87844 -2.14075,0.87844 z m 12.09891,0 q -1.25492,0 -2.14075,-0.87844 -0.88582,-0.89321 -0.88582,-2.14075 v -21.16386 h -12.09153 v -6.05315 h 15.1181 q 1.24754,0 2.13336,0.88583 0.88583,0.89321 0.88583,2.14075 v 24.19043 q 0,1.24754 -0.88583,2.14075 -0.88582,0.87844 -2.13336,0.87844 z m 9.06494,0 v -6.04576 h 21.16387 q 1.24754,0 2.14074,0.88583 0.87845,0.88582 0.87845,2.14074 0,1.24754 -0.87845,2.14075 -0.8932,0.87844 -2.14074,0.87844 z m 3.01919,-24.18305 q -1.24753,0 -2.14074,-0.88583 -0.87845,-0.88582 -0.87845,-2.14074 0,-1.24754 0.87845,-2.14075 0.89321,-0.88583 2.14074,-0.88583 1.25492,0 2.14075,0.88583 0.88583,0.89321 0.88583,2.14075 0,1.25492 -0.88583,2.14074 -0.88583,0.88583 -2.14075,0.88583 z m 0,12.09153 q -1.24753,0 -2.14074,-0.88583 -0.87845,-0.88583 -0.87845,-2.14075 0,-1.24753 0.87845,-2.13336 0.89321,-0.88583 2.14074,-0.88583 h 15.1181 v -6.04576 h -6.04576 v -6.05315 h 9.07234 q 1.24754,0 2.14074,0.88583 0.87845,0.89321 0.87845,2.14075 v 12.09152 q 0,1.25492 -0.87845,2.14075 -0.8932,0.88583 -2.14074,0.88583 z m 30.23621,0 q -1.24754,0 -2.14075,-0.88583 -0.87844,-0.88583 -0.87844,-2.14075 0,-1.24753 0.87844,-2.13336 0.89321,-0.88583 2.14075,-0.88583 1.25492,0 2.14075,0.88583 0.88582,0.88583 0.88582,2.13336 0,1.25492 -0.88582,2.14075 -0.88583,0.88583 -2.14075,0.88583 z m 6.04576,12.09152 q -1.24753,0 -2.14074,-0.87844 -0.87845,-0.89321 -0.87845,-2.14075 0,-1.25492 0.87845,-2.14074 0.89321,-0.88583 2.14074,-0.88583 h 9.07234 v -6.04576 H 770.803 v -6.04577 h 6.04576 v -6.04576 h -18.13729 v -6.05315 h 18.13729 q 2.50984,0 4.27411,1.77904 1.77165,1.77165 1.77165,4.27411 v 18.13729 q 0,2.50984 -1.77165,4.27411 -1.77165,1.77165 -4.27411,1.77165 z m 36.28936,0 q -1.25493,0 -2.14075,-0.87844 -0.88583,-0.89321 -0.88583,-2.14075 0,-1.25492 0.88583,-2.14074 0.88582,-0.88583 2.14075,-0.88583 1.24753,0 2.13336,0.88583 0.88583,0.88582 0.88583,2.14074 0,1.24754 -0.88583,2.14075 -0.88583,0.87844 -2.13336,0.87844 z m 0,-12.09152 q -1.25493,0 -2.14075,-0.88583 -0.88583,-0.88583 -0.88583,-2.14075 0,-1.24753 0.88583,-2.13336 0.88582,-0.88583 2.14075,-0.88583 1.24753,0 2.13336,0.88583 0.88583,0.88583 0.88583,2.13336 0,1.25492 -0.88583,2.14075 -0.88583,0.88583 -2.13336,0.88583 z m -15.1181,12.09152 v -24.18305 q 0,-2.50984 1.77165,-4.27411 1.77165,-1.77904 4.27411,-1.77904 h 9.07234 q 1.24753,0 2.13336,0.88583 0.88583,0.89321 0.88583,2.14075 0,1.25492 -0.88583,2.14074 -0.88583,0.88583 -2.13336,0.88583 h -9.07234 v 24.18305 z"
         id="path4" />
    </g>
  </g>
</svg>
