<?xml version="1.0" encoding="UTF-8" standalone="no"?>
<svg
   version="1.0"
   width="260.30255pt"
   height="235.1171pt"
   viewBox="0 0 260.30255 235.1171"
   preserveAspectRatio="xMidYMid"
   id="svg8"
   sodipodi:docname="x6RizB01.svg"
   inkscape:version="1.3.2 (091e20e, 2023-11-25, custom)"
   xmlns:inkscape="http://www.inkscape.org/namespaces/inkscape"
   xmlns:sodipodi="http://sodipodi.sourceforge.net/DTD/sodipodi-0.dtd"
   xmlns="http://www.w3.org/2000/svg"
   xmlns:svg="http://www.w3.org/2000/svg">
  <defs
     id="defs8" />
  <sodipodi:namedview
     id="namedview8"
     pagecolor="#ffffff"
     bordercolor="#000000"
     borderopacity="0.25"
     inkscape:showpageshadow="2"
     inkscape:pageopacity="0.0"
     inkscape:pagecheckerboard="0"
     inkscape:deskcolor="#d1d1d1"
     inkscape:document-units="pt"
     inkscape:zoom="0.81211122"
     inkscape:cx="60.336564"
     inkscape:cy="349.7058"
     inkscape:window-width="1278"
     inkscape:window-height="1360"
     inkscape:window-x="-7"
     inkscape:window-y="0"
     inkscape:window-maximized="0"
     inkscape:current-layer="svg8" />
  <metadata
     id="metadata1">
Created by potrace 1.10, written by Peter Selinger 2001-2011
</metadata>
  <g
     transform="matrix(0.1,0,0,-0.1,-6.140156,345.6171)"
     fill="#000000"
     stroke="none"
     id="g8">
    <path
       d="m 952,3435 c -29,-13 -81,-34 -115,-46 -34,-11 -69,-24 -77,-27 -8,-3 -87,-26 -175,-52 -126,-37 -162,-44 -168,-34 -4,8 -7,16 -7,19 0,3 -7,19 -15,35 -13,26 -19,29 -35,20 -24,-13 -24,-9 -4,-55 18,-45 15,-57 -17,-62 -13,-1 -44,-12 -69,-22 -25,-11 -53,-22 -62,-25 -10,-3 -18,-12 -18,-21 0,-22 51,-19 108,5 54,23 96,29 97,15 2,-19 28,-100 36,-110 5,-6 8,-20 8,-30 0,-40 103,-427 131,-490 8,-18 36,-115 56,-190 4,-16 8,-33 9,-37 2,-5 3,-12 4,-18 0,-5 10,-10 21,-10 15,0 20,7 20,28 0,42 -28,163 -41,178 -6,8 -8,14 -4,14 4,0 3,6 -3,13 -5,6 -13,28 -17,47 -4,19 -11,40 -16,45 -9,12 -63,216 -74,282 -4,24 -11,45 -15,48 -5,3 -7,11 -4,18 3,8 -2,27 -11,43 -8,16 -15,39 -15,51 0,12 -5,25 -10,28 -6,4 -10,12 -9,18 1,7 -3,25 -9,40 -16,37 -15,74 1,74 39,2 372,102 452,137 17,7 56,24 88,37 40,16 57,28 55,38 -5,24 -38,23 -96,-4 z"
       id="path1" />
    <path
       d="m 1776,2995 c -3,-9 -6,-35 -6,-58 0,-23 -7,-48 -16,-59 -15,-16 -16,-34 -6,-180 13,-196 28,-334 43,-391 6,-23 19,-100 29,-172 10,-71 23,-146 29,-165 6,-19 16,-66 22,-105 6,-38 14,-74 17,-80 3,-5 5,-26 3,-47 -3,-51 7,-78 30,-78 17,0 19,8 19,78 0,76 -22,199 -42,236 -5,10 -12,53 -15,95 -2,42 -9,85 -13,96 -5,11 -11,120 -12,242 -3,216 -3,221 17,211 25,-14 300,-2 338,15 23,10 27,18 27,55 0,24 -6,55 -14,70 -15,29 -70,82 -85,82 -5,0 -11,3 -13,8 -1,4 -30,20 -63,36 -33,15 -77,37 -98,48 -28,14 -52,19 -92,16 -54,-3 -54,-3 -57,27 -3,33 -31,46 -42,20 z m 177,-116 c 23,-12 43,-21 44,-21 5,2 60,-25 105,-51 47,-28 88,-80 88,-110 0,-24 -34,-38 -93,-38 -28,0 -83,-1 -122,-1 -115,-3 -123,0 -129,47 -17,129 -18,177 -5,186 24,15 68,10 112,-12 z m -153,-124 c 0,-25 -4,-45 -10,-45 -5,0 -10,20 -10,45 0,25 5,45 10,45 6,0 10,-20 10,-45 z m 13,-160 c 4,-55 2,-82 -3,-70 -8,19 -14,173 -6,164 2,-2 6,-44 9,-94 z"
       id="path2" />
    <path
       d="m 910,2906 c -106,-83 -168,-167 -182,-245 -10,-54 -9,-62 12,-96 l 23,-37 84,4 c 46,1 87,8 91,13 4,6 25,22 47,37 22,14 68,53 103,86 60,58 62,61 62,111 0,47 -3,55 -40,89 -107,100 -120,102 -200,38 z m 145,-57 c 70,-64 62,-94 -46,-179 -18,-14 -48,-38 -67,-54 -27,-24 -46,-31 -94,-34 -49,-4 -61,-1 -72,14 -8,10 -10,24 -6,34 5,8 14,35 21,59 9,31 33,64 79,111 102,106 119,110 185,49 z"
       id="path3" />
    <path
       d="m 2297,1778 c -2,-7 0,-21 5,-31 11,-22 6,-103 -16,-242 -23,-150 -21,-278 5,-332 21,-43 21,-43 75,-43 61,0 87,11 190,80 38,26 79,49 90,52 23,4 25,37 3,51 -12,8 -31,1 -79,-29 -34,-21 -77,-51 -95,-67 -20,-17 -50,-29 -78,-33 -41,-6 -46,-4 -62,20 -16,23 -17,43 -12,149 4,67 10,134 13,150 l 6,27 h 129 c 122,0 129,1 129,20 0,27 -29,33 -152,28 l -103,-3 v 105 c 0,100 -1,105 -21,108 -12,2 -24,-3 -27,-10 z"
       id="path4" />
    <path
       d="m 254,1748 c -31,-35 -44,-74 -44,-129 0,-67 36,-133 121,-221 58,-60 67,-73 54,-82 -19,-14 -225,-3 -267,15 -34,14 -61,-2 -56,-35 2,-16 11,-21 38,-23 19,-1 90,-5 157,-9 155,-9 183,0 183,57 0,36 -7,46 -70,108 -38,37 -70,74 -70,82 0,8 -9,25 -20,39 -25,32 -26,95 -2,141 14,29 22,34 52,34 28,0 35,4 35,20 0,17 -8,20 -45,23 -37,2 -49,-1 -66,-20 z"
       id="path5" />
    <path
       d="m 583,1653 c -33,-29 -63,-81 -63,-108 0,-9 -4,-14 -9,-11 -4,3 -17,-1 -27,-9 -18,-14 -18,-16 -1,-29 15,-12 16,-19 6,-65 -6,-29 -8,-68 -4,-87 7,-40 67,-108 109,-124 37,-14 189,-13 203,1 6,6 22,17 35,23 27,13 36,51 14,59 -9,4 -21,1 -28,-6 -34,-32 -70,-47 -117,-47 -27,0 -53,5 -56,10 -3,6 -14,10 -23,10 -9,1 -33,14 -52,31 -30,25 -35,36 -35,72 1,74 12,97 45,97 16,0 32,-4 35,-10 9,-15 167,-12 188,4 23,17 24,112 1,144 -25,36 -73,57 -154,68 -28,4 -41,-1 -67,-23 z m 108,-33 c 46,-13 92,-60 87,-91 -4,-30 -20,-33 -125,-24 -77,6 -83,8 -83,29 0,24 55,96 73,96 7,0 28,-5 48,-10 z"
       id="path6" />
    <path
       d="m 1104,1609 c -62,-33 -144,-104 -144,-126 0,-7 -4,-13 -8,-13 -5,0 -17,-19 -27,-42 -9,-24 -23,-55 -31,-70 -16,-30 -18,-106 -4,-128 8,-12 38,-15 168,-15 104,0 164,4 173,11 8,7 28,15 46,18 36,8 41,-1 52,-89 5,-41 9,-50 26,-50 18,0 21,9 28,120 4,66 12,129 18,140 6,12 9,48 7,80 -3,52 -6,60 -23,60 -18,0 -21,-9 -27,-79 -4,-43 -10,-81 -13,-84 -3,-3 -5,38 -5,91 v 97 l 42,20 c 32,15 62,20 130,20 57,0 87,-4 83,-10 -10,-16 23,-24 40,-10 47,39 -10,70 -131,70 -86,0 -179,-26 -202,-57 -10,-13 -12,-51 -11,-138 l 3,-120 -65,-22 c -48,-17 -87,-22 -159,-23 -132,0 -144,4 -137,47 6,37 46,120 80,169 24,34 97,87 137,99 14,4 31,12 38,18 9,7 20,6 37,-3 27,-14 55,-8 55,13 0,18 -43,37 -84,37 -18,0 -60,-14 -92,-31 z"
       id="path7" />
    <path
       d="m 1704,1435 c -13,-17 -24,-37 -24,-43 0,-7 -9,-12 -20,-12 -25,0 -46,-35 -28,-47 7,-4 18,-8 23,-8 6,-1 8,-7 6,-15 -2,-8 -8,-41 -14,-73 -13,-75 1,-103 57,-118 43,-12 439,-9 451,2 3,4 7,29 8,55 2,43 0,49 -18,49 -15,0 -21,-8 -23,-32 -3,-29 -7,-32 -45,-38 -34,-5 -282,-2 -349,5 -32,3 -38,22 -27,95 l 11,70 96,-3 c 102,-3 115,2 140,46 33,59 -12,89 -141,95 -78,4 -78,4 -103,-28 z m 146,-25 c 35,0 58,-16 44,-30 -7,-7 -43,-10 -93,-8 l -81,3 16,24 c 14,19 22,22 53,17 20,-3 47,-6 61,-6 z"
       id="path8" />
  </g>
</svg>
